<svg xmlns="http://www.w3.org/2000/svg" viewBox="5 3.333 30 33.33">
	<path d="M 33.125 10.45 C 33.698 10.775 34.174 11.248 34.503 11.818 C 34.833 12.389 35.004 13.037 35 13.696 V 25.836 C 35 27.184 34.262 28.428 33.07 29.083 L 21.82 36.2 C 21.262 36.506 20.636 36.666 20 36.666 C 19.364 36.666 18.738 36.506 18.18 36.2 L 6.93 29.083 C 6.347 28.764 5.86 28.295 5.521 27.724 C 5.181 27.153 5.001 26.501 5 25.836 V 13.694 C 5 12.346 5.738 11.104 6.93 10.45 L 18.18 3.816 C 18.754 3.5 19.399 3.333 20.055 3.333 C 20.711 3.333 21.356 3.5 21.93 3.816 L 33.125 10.45 Z M 20 12.583 C 20.414 12.583 20.75 12.919 20.75 13.333 V 19.25 H 26.667 C 27.081 19.25 27.417 19.586 27.417 20 C 27.417 20.414 27.081 20.75 26.667 20.75 H 20.75 V 26.667 C 20.75 27.081 20.414 27.417 20 27.417 C 19.586 27.417 19.25 27.081 19.25 26.667 V 20.75 H 13.333 C 12.919 20.75 12.583 20.414 12.583 20 C 12.583 19.586 12.919 19.25 13.333 19.25 H 19.25 V 13.333 C 19.25 12.919 19.586 12.583 20 12.583 Z" fill="#7542E5" fill-rule="evenodd"/>
</svg>