<?xml version="1.0" encoding="UTF-8"?>
<!-- Generated by Pixelmator Pro 3.6.18 -->
<svg width="564" height="503" viewBox="0 0 564 503" xmlns="http://www.w3.org/2000/svg">
    <path id="Path" fill="#e3d9fa" fill-opacity="0.764026" fill-rule="evenodd" stroke="none" d="M 1 2 C 6.978516 13.994141 27 25 27 25 C 27 25 61.419159 335.718201 62 338 C 76.539032 395.116516 137.354187 427.779663 259 428 C 282.668945 428.042847 330 428 330 428 C 330 428 487.608398 418.958496 498 345 C 506.747559 282.742432 536 24 536 24 C 536 24 555.78833 10.634644 563 1 C 566.011047 -3.022705 515 416 515 416 C 515 416 520.245361 450.830627 472 472 C 424.911926 492.66156 304.897827 514.033081 174 495 C 25.14917 473.356506 46.727173 419.739075 43 388 C 30.527893 281.792633 -4.978516 -9.994141 1 2 Z"/>
</svg>
