<?xml version="1.0" encoding="UTF-8"?>
<!-- Generated by Pixelmator Pro 3.6.18 -->
<svg width="507" height="394" viewBox="0 0 507 394" xmlns="http://www.w3.org/2000/svg">
    <path id="Path" fill="#b082ff" fill-rule="evenodd" stroke="none" d="M 483 2 C 483 2 512.988586 13.092346 497 41 C 482.658203 66.033203 438.230896 111.900574 459 139 C 473.848694 158.374512 473.556641 143.664063 497 154 C 501.080017 155.798828 511.591797 163.125 503 179 C 494.266113 195.137512 476.132813 205.480469 472 237 C 467.867188 268.519531 497 250 497 250 L 489 320 C 489 320 481.453125 293.089844 402 348 C 322.546875 402.910156 262.179321 377.661072 251 375 C 175.819977 357.104492 166.122375 354.23291 160 362 C 128.982666 401.349884 64.947479 401.921997 3 376 C 1.566711 375.400238 1.434143 370.590149 1 365 C -1.16745 337.091187 142.118988 331.994934 222 250 C 318.242188 151.210938 280.920471 115.197754 306 90 C 321.328125 74.599609 316.399841 51.071167 414 57 C 425.937134 57.725159 444.693237 28.917725 455 15 C 470.195007 -5.518616 483 2 483 2 Z"/>
</svg>
