<?xml version="1.0" encoding="UTF-8" standalone="no"?>
<!--Generator: Apple Native CoreSVG 175.5-->

<svg
   version="1.1"
   width="3300"
   height="2200"
   id="svg122"
   sodipodi:docname="rocket.fill.svg"
   inkscape:version="1.2.2 (b0a84865, 2022-12-01)"
   xmlns:inkscape="http://www.inkscape.org/namespaces/inkscape"
   xmlns:sodipodi="http://sodipodi.sourceforge.net/DTD/sodipodi-0.dtd"
   xmlns="http://www.w3.org/2000/svg"
   xmlns:svg="http://www.w3.org/2000/svg">
  <defs
     id="defs126" />
  <sodipodi:namedview
     id="namedview124"
     pagecolor="#ffffff"
     bordercolor="#000000"
     borderopacity="0.25"
     inkscape:showpageshadow="2"
     inkscape:pageopacity="0.0"
     inkscape:pagecheckerboard="0"
     inkscape:deskcolor="#d1d1d1"
     showgrid="false"
     inkscape:zoom="0.29853095"
     inkscape:cx="2478.805"
     inkscape:cy="1162.3585"
     inkscape:window-width="1728"
     inkscape:window-height="998"
     inkscape:window-x="0"
     inkscape:window-y="38"
     inkscape:window-maximized="0"
     inkscape:current-layer="Symbols"
     showguides="true" />
  <!--glyph: "uni100000.medium", point size: 100.0, font version: "18.0d12e2", template writer version: "101"-->
  <g
     id="Notes"
     transform="translate(2.4003264,84.328484)">
    <rect
       height="2200"
       id="artboard"
       style="opacity:1;fill:#ffffff"
       width="3300"
       x="0"
       y="0" />
    <line
       style="opacity:1;fill:none;stroke:#000000;stroke-width:0.5"
       x1="263"
       x2="3036"
       y1="292"
       y2="292"
       id="line3" />
    <text
       style="font-weight:bold;font-size:13px;font-family:sans-serif;fill:#000000;stroke:none"
       transform="translate(263,322)"
       id="text5">Weight/Scale Variations</text>
    <text
       style="font-size:13px;font-family:sans-serif;text-anchor:middle;fill:#000000;stroke:none"
       transform="translate(559.711,322)"
       id="text7">Ultralight</text>
    <text
       style="font-size:13px;font-family:sans-serif;text-anchor:middle;fill:#000000;stroke:none"
       transform="translate(856.422,322)"
       id="text9">Thin</text>
    <text
       style="font-size:13px;font-family:sans-serif;text-anchor:middle;fill:#000000;stroke:none"
       transform="translate(1153.13,322)"
       id="text11">Light</text>
    <text
       style="font-size:13px;font-family:sans-serif;text-anchor:middle;fill:#000000;stroke:none"
       transform="translate(1449.84,322)"
       id="text13">Regular</text>
    <text
       style="font-size:13px;font-family:sans-serif;text-anchor:middle;fill:#000000;stroke:none"
       transform="translate(1746.56,322)"
       id="text15">Medium</text>
    <text
       style="font-size:13px;font-family:sans-serif;text-anchor:middle;fill:#000000;stroke:none"
       transform="translate(2043.27,322)"
       id="text17">Semibold</text>
    <text
       style="font-size:13px;font-family:sans-serif;text-anchor:middle;fill:#000000;stroke:none"
       transform="translate(2339.98,322)"
       id="text19">Bold</text>
    <text
       style="font-size:13px;font-family:sans-serif;text-anchor:middle;fill:#000000;stroke:none"
       transform="translate(2636.69,322)"
       id="text21">Heavy</text>
    <text
       style="font-size:13px;font-family:sans-serif;text-anchor:middle;fill:#000000;stroke:none"
       transform="translate(2933.4,322)"
       id="text23">Black</text>
    <line
       style="opacity:1;fill:none;stroke:#000000;stroke-width:0.5"
       x1="263"
       x2="3036"
       y1="1903"
       y2="1903"
       id="line25" />
    <g
       transform="translate(263,1933)"
       id="g29">
      <path
         d="m 9.24805,0.830078 c 4.30665,0 7.89065,-3.574218 7.89065,-7.880858 0,-4.30662 -3.5938,-7.88082 -7.90042,-7.88082 -4.29687,0 -7.87109,3.5742 -7.87109,7.88082 0,4.30664 3.58398,7.880858 7.88086,7.880858 z m 0,-1.484375 c -3.54493,0 -6.37696,-2.841793 -6.37696,-6.396483 0,-3.55472 2.82227,-6.39652 6.36719,-6.39652 3.55472,0 6.40622,2.8418 6.40622,6.39652 0,3.55469 -2.8418,6.396483 -6.39645,6.396483 z M 5.6543,-7.05078 c 0,0.42969 0.30273,0.72266 0.75195,0.72266 h 2.09961 v 2.11914 c 0,0.43945 0.29297,0.74218 0.72266,0.74218 0.44921,0 0.74218,-0.30273 0.74218,-0.74218 v -2.11914 h 2.1191 c 0.4395,0 0.7422,-0.29297 0.7422,-0.72266 0,-0.43945 -0.3027,-0.74219 -0.7422,-0.74219 H 9.9707 v -2.10937 c 0,-0.44926 -0.29297,-0.75196 -0.74218,-0.75196 -0.42969,0 -0.72266,0.3027 -0.72266,0.75196 v 2.10937 H 6.40625 c -0.44922,0 -0.75195,0.30274 -0.75195,0.74219 z"
         id="path27" />
    </g>
    <g
       transform="translate(281.867,1933)"
       id="g33">
      <path
         d="m 11.709,2.91016 c 5.4492,0 9.9609,-4.52149 9.9609,-9.96094 0,-5.44922 -4.5215,-9.96092 -9.9707,-9.96092 -5.43943,0 -9.95115,4.5117 -9.95115,9.96092 0,5.43945 4.52148,9.96094 9.96095,9.96094 z m 0,-1.66016 c -4.60939,0 -8.29103,-3.69141 -8.29103,-8.30078 0,-4.60942 3.67187,-8.30082 8.28123,-8.30082 4.6094,0 8.3106,3.6914 8.3106,8.30082 0,4.60937 -3.6914,8.30078 -8.3008,8.30078 z M 7.17773,-7.05078 c 0,0.47851 0.33204,0.80078 0.83008,0.80078 h 2.87109 v 2.88086 c 0,0.48828 0.332,0.83008 0.8106,0.83008 0.4882,0 0.83,-0.33203 0.83,-0.83008 V -6.25 h 2.8809 c 0.4883,0 0.8301,-0.32227 0.8301,-0.80078 0,-0.48828 -0.3418,-0.83008 -0.8301,-0.83008 H 12.5195 V -10.752 c 0,-0.498 -0.3418,-0.8398 -0.83,-0.8398 -0.4786,0 -0.8106,0.3418 -0.8106,0.8398 v 2.87114 H 8.00781 c -0.49804,0 -0.83008,0.3418 -0.83008,0.83008 z"
         id="path31" />
    </g>
    <g
       transform="translate(305.646,1933)"
       id="g37">
      <path
         d="m 14.9707,5.66406 c 6.9629,0 12.7246,-5.7617162 12.7246,-12.71484 0,-6.96292 -5.7715,-12.72462 -12.7344,-12.72462 -6.95309,0 -12.70504,5.7617 -12.70504,12.72462 0,6.9531238 5.76172,12.71484 12.71484,12.71484 z m 0,-1.8164 c -6.03515,0 -10.88867,-4.86328 -10.88867,-10.89844 0,-6.04492 4.84375,-10.89842 10.87887,-10.89842 6.045,0 10.9082,4.8535 10.9082,10.89842 0,6.03516 -4.8535,10.89844 -10.8984,10.89844 z M 9.19922,-7.05078 c 0,0.51758 0.37109,0.8789 0.91798,0.8789 h 3.9453 v 3.95508 c 0,0.53711 0.3711,0.91797 0.8887,0.91797 0.5371,0 0.9082,-0.37109 0.9082,-0.91797 v -3.95508 h 3.9551 c 0.5371,0 0.9179,-0.36132 0.9179,-0.8789 0,-0.54688 -0.3711,-0.91797 -0.9179,-0.91797 h -3.9551 v -3.94535 c 0,-0.5468 -0.3711,-0.9277 -0.9082,-0.9277 -0.5176,0 -0.8887,0.3809 -0.8887,0.9277 v 3.94535 h -3.9453 c -0.54689,0 -0.91798,0.37109 -0.91798,0.91797 z"
         id="path35" />
    </g>
    <text
       style="font-weight:bold;font-size:13px;font-family:sans-serif;fill:#000000;stroke:none"
       transform="translate(263,1953)"
       id="text39">Design Variations</text>
    <text
       style="font-size:13px;font-family:sans-serif;fill:#000000;stroke:none"
       transform="translate(263,1971)"
       id="text41">Symbols are supported in up to nine weights and three scales.</text>
    <text
       style="font-size:13px;font-family:sans-serif;fill:#000000;stroke:none"
       transform="translate(263,1989)"
       id="text43">For optimal layout with text and other symbols, vertically align</text>
    <text
       style="font-size:13px;font-family:sans-serif;fill:#000000;stroke:none"
       transform="translate(263,2007)"
       id="text45">symbols with the adjacent text.</text>
    <line
       style="opacity:1;fill:none;stroke:#00aeef;stroke-width:0.5"
       x1="776"
       x2="776"
       y1="1919"
       y2="1933"
       id="line47" />
    <g
       transform="translate(776,1933)"
       id="g51">
      <path
         d="m 3.31055,0.15625 c 0.51757,0 0.77148,-0.1953125 0.95703,-0.742188 L 5.52734,-4.0332 h 5.76176 l 1.2597,3.447262 c 0.1856,0.5468755 0.4395,0.742188 0.9473,0.742188 0.5176,0 0.8496,-0.3125 0.8496,-0.800781 0,-0.166016 -0.0293,-0.322266 -0.1074,-0.527349 L 9.6582,-13.3691 c -0.22461,-0.5957 -0.625,-0.8985 -1.25,-0.8985 -0.60547,0 -1.01562,0.293 -1.23047,0.8887 L 2.59766,-1.16211 c -0.07813,0.205079 -0.10743,0.361329 -0.10743,0.527344 0,0.488282 0.3125,0.791016 0.82032,0.791016 z m 2.69531,-5.67383 2.37305,-6.57222 h 0.04882 l 2.37307,6.57222 z"
         id="path49" />
    </g>
    <line
       style="opacity:1;fill:none;stroke:#00aeef;stroke-width:0.5"
       x1="793.19702"
       x2="793.19702"
       y1="1919"
       y2="1933"
       id="line53" />
    <text
       style="font-weight:bold;font-size:13px;font-family:sans-serif;fill:#000000;stroke:none"
       transform="translate(776,1953)"
       id="text55">Margins</text>
    <text
       style="font-size:13px;font-family:sans-serif;fill:#000000;stroke:none"
       transform="translate(776,1971)"
       id="text57">Leading and trailing margins on the left and right side of each symbol</text>
    <text
       style="font-size:13px;font-family:sans-serif;fill:#000000;stroke:none"
       transform="translate(776,1989)"
       id="text59">can be adjusted by modifying the x-location of the margin guidelines.</text>
    <text
       style="font-size:13px;font-family:sans-serif;fill:#000000;stroke:none"
       transform="translate(776,2007)"
       id="text61">Modifications are automatically applied proportionally to all</text>
    <text
       style="font-size:13px;font-family:sans-serif;fill:#000000;stroke:none"
       transform="translate(776,2025)"
       id="text63">scales and weights.</text>
    <g
       transform="translate(1289,1933)"
       id="g67">
      <path
         d="M 2.8418,1.86523 4.54102,3.57422 C 5.40039,4.44336 6.38672,4.38477 7.31445,3.35938 L 18.0078,-8.42773 17.041,-9.4043 6.42578,2.27539 C 6.07422,2.67578 5.74219,2.77344 5.27344,2.30469 L 4.10156,1.14258 C 3.63281,0.683594 3.74023,0.341797 4.14062,-0.0195312 L 15.6152,-10.8203 14.6387,-11.7871 3.04688,-0.898438 C 2.06055,0.0195312 1.98242,0.996094 2.8418,1.86523 Z M 9.25781,-16.3281 c -0.41992,0.4101 -0.44922,0.9863 -0.21484,1.3769 0.23437,0.3614 0.69336,0.5957 1.33793,0.4297 1.4648,-0.3418 2.9882,-0.4004 4.414,0.5371 l -0.5859,1.4551 c -0.3418,0.8301 -0.166,1.416 0.3711,1.9629 l 2.2949,2.31445 c 0.4883,0.48828 0.8984,0.50781 1.4648,0.41015 l 1.0645,-0.19531 0.6641,0.67383 -0.0391,0.55664 c -0.0391,0.49805 0.0879,0.87891 0.5762,1.35742 l 0.7617,0.74219 c 0.4785,0.47851 1.0937,0.50781 1.5625,0.03906 l 2.9101,-2.91992 c 0.4688,-0.46875 0.4493,-1.06445 -0.0293,-1.54297 l -0.7714,-0.76172 c -0.4786,-0.47852 -0.8496,-0.63472 -1.3282,-0.59572 l -0.5761,0.0488 -0.6446,-0.6347 0.2442,-1.1231 c 0.1269,-0.5664 -0.0293,-1.0058 -0.6153,-1.5918 l -2.1972,-2.1875 c -3.3399,-3.3203 -7.7735,-3.2422 -10.66409,-0.3515 z m 1.49419,0.3711 c 2.4316,-1.7774 5.7226,-1.4746 7.9492,0.7519 l 2.4316,2.4121 c 0.2344,0.2344 0.2734,0.42 0.2051,0.7618 l -0.3223,1.4843 1.5039,1.4844 0.9864,-0.05859 c 0.2539,-0.00977 0.332,0.00976 0.5273,0.20507 l 0.5762,0.57618 -2.4414,2.4414 -0.5762,-0.57617 C 21.3965,-6.66992 21.3672,-6.74805 21.377,-7.01172 l 0.0683,-0.97656 -1.4941,-1.48438 -1.5235,0.25391 c -0.3222,0.06836 -0.4687,0.03906 -0.7129,-0.19531 L 15.7129,-11.416 c -0.2539,-0.2344 -0.2832,-0.4004 -0.127,-0.7715 l 0.8789,-2.0898 c -1.5625,-1.4551 -3.5937,-2.0801 -5.625,-1.4844 -0.1562,0.039 -0.2148,-0.0879 -0.0878,-0.1953 z"
         id="path65" />
    </g>
    <text
       style="font-weight:bold;font-size:13px;font-family:sans-serif;fill:#000000;stroke:none"
       transform="translate(1289,1953)"
       id="text69">Exporting</text>
    <text
       style="font-size:13px;font-family:sans-serif;fill:#000000;stroke:none"
       transform="translate(1289,1971)"
       id="text71">Symbols should be outlined when exporting to ensure the</text>
    <text
       style="font-size:13px;font-family:sans-serif;fill:#000000;stroke:none"
       transform="translate(1289,1989)"
       id="text73">design is preserved when submitting to Xcode.</text>
    <text
       id="template-version"
       style="font-size:13px;font-family:sans-serif;text-anchor:end;fill:#000000;stroke:none"
       transform="translate(3036,1933)">Template v.4.0</text>
    <text
       style="font-size:13px;font-family:sans-serif;text-anchor:end;fill:#000000;stroke:none"
       transform="translate(3036,1951)"
       id="text76">Requires Xcode 14 or greater</text>
    <text
       id="descriptive-name"
       style="font-size:13px;font-family:sans-serif;text-anchor:end;fill:#000000;stroke:none"
       transform="translate(3036,1969)">Generated from circle</text>
    <text
       style="font-size:13px;font-family:sans-serif;text-anchor:end;fill:#000000;stroke:none"
       transform="translate(3036,1987)"
       id="text79">Typeset at 100 points</text>
    <text
       style="font-size:13px;font-family:sans-serif;fill:#000000;stroke:none"
       transform="translate(263,726)"
       id="text81">Small</text>
    <text
       style="font-size:13px;font-family:sans-serif;fill:#000000;stroke:none"
       transform="translate(263,1156)"
       id="text83">Medium</text>
    <text
       style="font-size:13px;font-family:sans-serif;fill:#000000;stroke:none"
       transform="translate(263,1586)"
       id="text85">Large</text>
  </g>
  <g
     id="Guides">
    <g
       id="H-reference"
       style="fill:#27AAE1;stroke:none;"
       transform="matrix(1 0 0 1 339 696)">
      <path
         d="M0.993654 0L3.63775 0L29.3281-67.1323L30.0303-67.1323L30.0303-70.459L28.1226-70.459ZM11.6885-24.4799L46.9815-24.4799L46.2315-26.7285L12.4385-26.7285ZM55.1196 0L57.7637 0L30.6382-70.459L29.4326-70.459L29.4326-67.1323Z"
         id="path88" />
    </g>
    <line
       id="Baseline-S"
       style="fill:none;stroke:#27AAE1;opacity:1;stroke-width:0.5;"
       x1="263"
       x2="3036"
       y1="696"
       y2="696" />
    <line
       id="Capline-S"
       style="fill:none;stroke:#27AAE1;opacity:1;stroke-width:0.5;"
       x1="263"
       x2="3036"
       y1="625.541"
       y2="625.541" />
    <g
       id="g95"
       style="fill:#27AAE1;stroke:none;"
       transform="matrix(1 0 0 1 339 1126)">
      <path
         d="M0.993654 0L3.63775 0L29.3281-67.1323L30.0303-67.1323L30.0303-70.459L28.1226-70.459ZM11.6885-24.4799L46.9815-24.4799L46.2315-26.7285L12.4385-26.7285ZM55.1196 0L57.7637 0L30.6382-70.459L29.4326-70.459L29.4326-67.1323Z"
         id="path93" />
    </g>
    <line
       id="Baseline-M"
       style="fill:none;stroke:#27AAE1;opacity:1;stroke-width:0.5;"
       x1="263"
       x2="3036"
       y1="1126"
       y2="1126" />
    <line
       id="Capline-M"
       style="fill:none;stroke:#27AAE1;opacity:1;stroke-width:0.5;"
       x1="263"
       x2="3036"
       y1="1055.54"
       y2="1055.54" />
    <g
       id="g101"
       style="fill:#27AAE1;stroke:none;"
       transform="matrix(1 0 0 1 339 1556)">
      <path
         d="M0.993654 0L3.63775 0L29.3281-67.1323L30.0303-67.1323L30.0303-70.459L28.1226-70.459ZM11.6885-24.4799L46.9815-24.4799L46.2315-26.7285L12.4385-26.7285ZM55.1196 0L57.7637 0L30.6382-70.459L29.4326-70.459L29.4326-67.1323Z"
         id="path99" />
    </g>
    <line
       id="Baseline-L"
       style="fill:none;stroke:#27AAE1;opacity:1;stroke-width:0.5;"
       x1="263"
       x2="3036"
       y1="1556"
       y2="1556" />
    <line
       id="Capline-L"
       style="fill:none;stroke:#27AAE1;opacity:1;stroke-width:0.5;"
       x1="263"
       x2="3036"
       y1="1485.54"
       y2="1485.54" />
    <line
       id="left-margin-Ultralight-S"
       style="fill:none;stroke:#00AEEF;stroke-width:0.5;opacity:1.0;"
       x1="515.649"
       x2="515.649"
       y1="600.785"
       y2="720.121" />
    <line
       id="right-margin-Ultralight-S"
       style="fill:none;stroke:#00AEEF;stroke-width:0.5;opacity:1.0;"
       x1="603.773"
       x2="603.773"
       y1="600.785"
       y2="720.121" />
    <line
       id="left-margin-Regular-S"
       style="fill:none;stroke:#00AEEF;stroke-width:0.5;opacity:1.0;"
       x1="1403.58"
       x2="1403.58"
       y1="600.785"
       y2="720.121" />
    <line
       id="right-margin-Regular-S"
       style="fill:none;stroke:#00AEEF;stroke-width:0.5;opacity:1.0;"
       x1="1496.11"
       x2="1496.11"
       y1="600.785"
       y2="720.121" />
    <line
       id="left-margin-Black-S"
       style="fill:none;stroke:#00AEEF;stroke-width:0.5;opacity:1.0;"
       x1="2884.57"
       x2="2884.57"
       y1="600.785"
       y2="720.121" />
    <line
       id="right-margin-Black-S"
       style="fill:none;stroke:#00AEEF;stroke-width:0.5;opacity:1.0;"
       x1="2982.23"
       x2="2982.23"
       y1="600.785"
       y2="720.121" />
  </g>
  <g
     id="Symbols">
    <g
       id="Regular-S">
      <path
         id="path193"
         style="stroke-width:0.144866"
         d="m 1482.002,621.44922 c -6.7571,-0.18345 -23.7507,2.53122 -36.0293,13.08789 l -3.4727,-1.33594 c -5.4442,-2.08536 -11.5198,-0.33347 -15.3066,4.25391 l -7.4942,9.34375 c -0.868,1.08457 -1.1825,2.50203 -0.8672,3.91992 0.158,0.75059 0.5521,1.41951 1.0254,1.91992 0.3946,0.41719 0.9455,0.83359 1.4981,1 l 8.6797,3.33594 c -1.5778,3.5034 -2.6024,6.58959 -3.3125,8.92578 -0.7892,2.58569 -0.081,5.33777 1.7343,7.33984 l 9.627,10.17774 c 1.8937,2.00209 4.4975,2.66842 6.9433,1.83398 2.2091,-0.75059 5.1272,-1.91693 8.4415,-3.50195 l 3.1562,9.17578 c 0.2367,0.58418 0.5533,1.16674 0.9473,1.58399 0.4734,0.5004 1.1044,0.91895 1.8144,1.08593 1.2625,0.3334 2.6813,0.0816 3.7071,-0.83593 l 8.8378,-7.92383 c 4.3396,-3.92046 5.996,-10.42607 4.0235,-16.18164 l -1.1856,-3.67188 c 10.7303,-13.93014 12.8612,-33.36528 12.3086,-39.37109 -0.1579,-2.16861 -1.8927,-3.92091 -3.8652,-4.08789 -0.3551,-0.0365 -0.7605,-0.062 -1.2109,-0.0742 z m -22.0645,17.05273 c 6.5592,3.5e-4 11.8767,5.31774 11.877,11.87696 10e-4,6.56013 -5.3169,11.87855 -11.877,11.8789 -6.5611,9e-4 -11.8799,-5.31788 -11.8789,-11.8789 3e-4,-6.5601 5.3188,-11.87786 11.8789,-11.87696 z m 0,4.84961 c -3.8812,-1.8e-4 -7.0275,3.14619 -7.0273,7.02735 -2e-4,3.88115 3.1461,7.02752 7.0273,7.02734 3.8812,2.4e-4 7.0275,-3.14615 7.0273,-7.02734 2e-4,-3.8812 -3.1461,-7.02759 -7.0273,-7.02735 z" />
      <path
         d="m 1433.7539,683.70217 c -2.9941,0.18104 -5.731,-2.71313 -5.5596,-5.87776 0,-0.5425 -0.1713,-1.08499 -0.5131,-1.53727 -0.4279,-0.45229 -0.8557,-0.63333 -1.4541,-0.54249 -2.395,0.18104 -4.7047,1.26601 -6.5865,3.16544 -0.3625,0.35762 -0.3542,0.34634 -0.6844,0.72354 -5.9881,6.1484 -7.3568,15.19162 -7.6986,18.80824 -0.086,0.81375 0.1713,1.71837 0.7697,2.26081 0.599,0.63333 1.3687,0.90458 2.2238,0.81374 3.4212,-0.36145 11.8893,-1.80879 17.7917,-8.04845 l 0.5991,-0.63333 c 1.7965,-2.07977 2.9081,-4.5216 2.994,-7.0537 0,-0.5425 -0.1712,-1.08499 -0.5131,-1.53727 -0.4191,-0.37784 -0.7532,-0.63156 -1.3689,-0.5415 z"
         id="path195"
         style="stroke-width:0.144866"
         sodipodi:nodetypes="cccccccccscccc" />
    </g>
    <g
       id="Ultralight-S"
       transform="matrix(1.013151,0,0,0.9833796,-908.17089,10.472384)">
      <path
         id="path193-0"
         style="stroke-width:0.144866"
         d="m 1482.002,621.44922 c -6.7571,-0.18345 -23.7507,2.53122 -36.0293,13.08789 l -3.4727,-1.33594 c -5.4442,-2.08536 -11.5198,-0.33347 -15.3066,4.25391 l -7.4942,9.34375 c -0.868,1.08457 -1.1825,2.50203 -0.8672,3.91992 0.158,0.75059 0.5521,1.41951 1.0254,1.91992 0.3946,0.41719 0.9455,0.83359 1.4981,1 l 8.6797,3.33594 c -1.5778,3.5034 -2.6024,6.58959 -3.3125,8.92578 -0.7892,2.58569 -0.081,5.33777 1.7343,7.33984 l 9.627,10.17774 c 1.8937,2.00209 4.4975,2.66842 6.9433,1.83398 2.2091,-0.75059 5.1272,-1.91693 8.4415,-3.50195 l 3.1562,9.17578 c 0.2367,0.58418 0.5533,1.16674 0.9473,1.58399 0.4734,0.5004 1.1044,0.91895 1.8144,1.08593 1.2625,0.3334 2.6813,0.0816 3.7071,-0.83593 l 8.8378,-7.92383 c 4.3396,-3.92046 5.996,-10.42607 4.0235,-16.18164 l -1.1856,-3.67188 c 10.7303,-13.93014 12.8612,-33.36528 12.3086,-39.37109 -0.1579,-2.16861 -1.8927,-3.92091 -3.8652,-4.08789 -0.3551,-0.0365 -0.7605,-0.062 -1.2109,-0.0742 z m -22.0645,17.05273 c 6.5592,3.5e-4 11.8767,5.31774 11.877,11.87696 10e-4,6.56013 -5.3169,11.87855 -11.877,11.8789 -6.5611,9e-4 -11.8799,-5.31788 -11.8789,-11.8789 3e-4,-6.5601 5.3188,-11.87786 11.8789,-11.87696 z m 0,4.84961 c -3.8812,-1.8e-4 -7.0275,3.14619 -7.0273,7.02735 -2e-4,3.88115 3.1461,7.02752 7.0273,7.02734 3.8812,2.4e-4 7.0275,-3.14615 7.0273,-7.02734 2e-4,-3.8812 -3.1461,-7.02759 -7.0273,-7.02735 z" />
      <path
         d="m 1433.7539,683.70217 c -2.9941,0.18104 -5.731,-2.71313 -5.5596,-5.87776 0,-0.5425 -0.1713,-1.08499 -0.5131,-1.53727 -0.4279,-0.45229 -0.8557,-0.63333 -1.4541,-0.54249 -2.395,0.18104 -4.7047,1.26601 -6.5865,3.16544 -0.3625,0.35762 -0.3542,0.34634 -0.6844,0.72354 -5.9881,6.1484 -7.3568,15.19162 -7.6986,18.80824 -0.086,0.81375 0.1713,1.71837 0.7697,2.26081 0.599,0.63333 1.3687,0.90458 2.2238,0.81374 3.4212,-0.36145 11.8893,-1.80879 17.7917,-8.04845 l 0.5991,-0.63333 c 1.7965,-2.07977 2.9081,-4.5216 2.994,-7.0537 0,-0.5425 -0.1712,-1.08499 -0.5131,-1.53727 -0.4191,-0.37784 -0.7532,-0.63156 -1.3689,-0.5415 z"
         id="path195-2"
         style="stroke-width:0.144866"
         sodipodi:nodetypes="cccccccccscccc" />
    </g>
    <g
       id="Black-S"
       transform="matrix(1.0350695,0,0,1.0290857,1433.0548,-18.800246)">
      <path
         id="path193-9"
         style="stroke-width:0.144866"
         d="m 1482.002,621.44922 c -6.7571,-0.18345 -23.7507,2.53122 -36.0293,13.08789 l -3.4727,-1.33594 c -5.4442,-2.08536 -11.5198,-0.33347 -15.3066,4.25391 l -7.4942,9.34375 c -0.868,1.08457 -1.1825,2.50203 -0.8672,3.91992 0.158,0.75059 0.5521,1.41951 1.0254,1.91992 0.3946,0.41719 0.9455,0.83359 1.4981,1 l 8.6797,3.33594 c -1.5778,3.5034 -2.6024,6.58959 -3.3125,8.92578 -0.7892,2.58569 -0.081,5.33777 1.7343,7.33984 l 9.627,10.17774 c 1.8937,2.00209 4.4975,2.66842 6.9433,1.83398 2.2091,-0.75059 5.1272,-1.91693 8.4415,-3.50195 l 3.1562,9.17578 c 0.2367,0.58418 0.5533,1.16674 0.9473,1.58399 0.4734,0.5004 1.1044,0.91895 1.8144,1.08593 1.2625,0.3334 2.6813,0.0816 3.7071,-0.83593 l 8.8378,-7.92383 c 4.3396,-3.92046 5.996,-10.42607 4.0235,-16.18164 l -1.1856,-3.67188 c 10.7303,-13.93014 12.8612,-33.36528 12.3086,-39.37109 -0.1579,-2.16861 -1.8927,-3.92091 -3.8652,-4.08789 -0.3551,-0.0365 -0.7605,-0.062 -1.2109,-0.0742 z m -22.0645,17.05273 c 6.5592,3.5e-4 11.8767,5.31774 11.877,11.87696 10e-4,6.56013 -5.3169,11.87855 -11.877,11.8789 -6.5611,9e-4 -11.8799,-5.31788 -11.8789,-11.8789 3e-4,-6.5601 5.3188,-11.87786 11.8789,-11.87696 z m 0,4.84961 c -3.8812,-1.8e-4 -7.0275,3.14619 -7.0273,7.02735 -2e-4,3.88115 3.1461,7.02752 7.0273,7.02734 3.8812,2.4e-4 7.0275,-3.14615 7.0273,-7.02734 2e-4,-3.8812 -3.1461,-7.02759 -7.0273,-7.02735 z" />
      <path
         d="m 1433.7539,683.70217 c -2.9941,0.18104 -5.731,-2.71313 -5.5596,-5.87776 0,-0.5425 -0.1713,-1.08499 -0.5131,-1.53727 -0.4279,-0.45229 -0.8557,-0.63333 -1.4541,-0.54249 -2.395,0.18104 -4.7047,1.26601 -6.5865,3.16544 -0.3625,0.35762 -0.3542,0.34634 -0.6844,0.72354 -5.9881,6.1484 -7.3568,15.19162 -7.6986,18.80824 -0.086,0.81375 0.1713,1.71837 0.7697,2.26081 0.599,0.63333 1.3687,0.90458 2.2238,0.81374 3.4212,-0.36145 11.8893,-1.80879 17.7917,-8.04845 l 0.5991,-0.63333 c 1.7965,-2.07977 2.9081,-4.5216 2.994,-7.0537 0,-0.5425 -0.1712,-1.08499 -0.5131,-1.53727 -0.4191,-0.37784 -0.7532,-0.63156 -1.3689,-0.5415 z"
         id="path195-0"
         style="stroke-width:0.144866"
         sodipodi:nodetypes="cccccccccscccc" />
    </g>
  </g>
  <ellipse
     style="fill:#000000"
     id="path635"
     cx="1384.8197"
     cy="650.08722"
     rx="1.7392863"
     ry="0.057976209" />
</svg>
